<?xml version="1.0" encoding="utf-8"?>
<!-- Generator: Adobe Illustrator 24.3.0, SVG Export Plug-In . SVG Version: 6.00 Build 0)  -->
<svg version="1.1" id="Capa_1" xmlns="http://www.w3.org/2000/svg" xmlns:xlink="http://www.w3.org/1999/xlink" x="0px" y="0px"
	 viewBox="0 0 150 150" style="enable-background:new 0 0 150 150;" xml:space="preserve">
<style type="text/css">
	.st0{fill:#F79595;}
	.st1{fill:#EE6161;}
	.st2{fill:#F9B1B1;}
	.st3{fill:#F37C7C;}
</style>
<g>
	<g>
		<g id="XMLID_427_">
			<g>
				<path class="st0" d="M146.2,75.9c2.5,0.5,4.2,3,3.7,5.5l-1.9,9.5c-0.5,2.6-3.1,4.3-5.7,3.7c-2.5-0.6-3.9-3.1-3.5-5.6l0.1-0.3
					l-12.3,0.6c-0.4,0-0.7,0.3-0.8,0.6c-1.2,3.6-2.8,7.1-4.7,10.3c-0.2,0.3-0.2,0.7,0.1,1l5.4,6.4c1.1-1,2.5-1.6,3.9-1.6
					c1.2,0,2.4,0.4,3.4,1.2c2.5,1.9,3,5.5,1.1,7.9l-1.6,2.1c-1.8,2.4-5.3,3.1-7.8,1.3c-2.2-1.5-2.9-4.2-2.2-6.5l-7.8-3.4
					c-0.4-0.2-0.8-0.1-1,0.2c-3.6,4-7.8,7.4-12.5,10.1c-0.3,0.2-0.5,0.6-0.4,0.9l2,12.2l1.7-0.7c2.5-1,5.3,0.3,6.2,2.8
					c0.8,2.4-0.5,5-2.8,5.9l-8.8,3.5c-2.5,1-5.3-0.3-6.2-2.8c-0.8-2.4,0.5-5,2.8-5.9l0.2-0.1l-7.1-10c-0.2-0.3-0.6-0.4-1-0.3
					c-4.3,1.1-8.7,1.7-13.3,1.7c-3.6,0-7.2-0.4-10.6-1.1c-0.4-0.1-0.7,0.1-0.9,0.4l-7.1,11.2l0.3,0.1c2.3,0.8,3.8,3,3.8,5.4
					c0,0.7-0.1,1.3-0.3,2c0,3.3-2.6,5.2-5.7,4L46,145c-2.9-1.1-4.5-4.3-3.5-7.2c1-3,4.5-4.6,7.5-3.5l0.2,0.1l1.5-13.1
					c0-0.4-0.2-0.7-0.5-0.9c-5.6-2.9-10.5-6.7-14.7-11.2c-0.3-0.3-0.7-0.4-1-0.2l-10.7,4.4c1.2,2.3,0.5,5.1-1.7,6.6
					c-2.3,1.5-5.4,0.8-7-1.5l-2.7-3.9c-1.5-2.2-1.2-5.3,0.9-6.9c2.3-1.8,5.5-1.3,7.1,0.9l7.5-8.5c0.3-0.3,0.3-0.7,0.1-1
					C26,93.3,23.9,87.1,23,80.5c-0.1-0.4-0.3-0.7-0.7-0.8l-12-2.8l0,1.4c0,1.4-0.6,2.7-1.5,3.6c-0.9,0.9-2.2,1.5-3.6,1.5
					c-2.8,0-5.1-2.3-5.1-5.1l0.1-8.7c0-2.9,2.4-5.3,5.2-5.2c2.8,0.1,5,2.4,5,5.1l12-2.8c0.4-0.1,0.6-0.4,0.7-0.8
					c0.9-7,3.2-13.5,6.6-19.3c0.2-0.3,0.2-0.7-0.1-1L23.7,39l-0.5,0.7c-1.5,2-4.5,2.4-6.5,0.7c-1.9-1.5-2.1-4.3-0.6-6.3l3.8-5
					c0.9-1.2,2.2-1.8,3.6-1.8c0.9,0,1.9,0.3,2.7,0.9c1.9,1.4,2.3,4,1.1,6l8,3.4c0.4,0.2,0.8,0.1,1-0.2c3.8-4.1,8.2-7.7,13.1-10.4
					c0.3-0.2,0.5-0.5,0.4-0.9L48,13.9l-1.7,0.7c-2.5,1-5.3-0.4-6.2-2.9c-0.8-2.4,0.5-5,2.9-5.9l8.9-3.4c2.5-1,5.3,0.3,6.2,2.9
					c0.8,2.4-0.5,5-2.9,5.9l-0.2,0.1l7,10.1c0.2,0.3,0.6,0.4,0.9,0.4c4.1-1,8.3-1.5,12.7-1.5h0c0.4,0,0.7-0.2,0.8-0.6l2.3-6.5
					c-2.7-0.8-4.5-3.5-4.1-6.4c0.4-3.3,3.5-5.6,6.8-5.2l3.2,0.4c3.2,0.4,5.7,3.3,5.3,6.6c-0.3,2.5-2.1,4.5-4.4,5.1l0.8,7
					c0,0.4,0.3,0.7,0.7,0.8c5.4,1.2,10.4,3.2,15.1,5.9c0.3,0.2,0.7,0.2,1-0.1l9.6-7.8l-1.5-1.2c-2.1-1.7-2.4-4.7-0.6-6.8
					c1.7-1.9,4.6-2.1,6.6-0.5l7.5,5.9c2.1,1.7,2.4,4.7,0.6,6.8c-1.7,1.9-4.6,2.1-6.6,0.5l-0.2-0.2l-5.1,11.2c-0.2,0.3-0.1,0.7,0.2,1
					c3.6,3.7,6.7,7.9,9.1,12.6c0.2,0.3,0.5,0.5,0.9,0.5l7.3-1c-1.1-3,0.5-6.3,3.6-7.3c2.9-1,6.1,0.7,7.1,3.5l1.7,4.5
					c1.1,2.8-0.2,6.1-3,7.3c-2.7,1.2-5.7,0.1-7.1-2.3l-6,4.1c-0.3,0.2-0.5,0.6-0.4,1c1.2,4.5,1.9,9.2,1.9,14.1c0,0.8,0,1.6-0.1,2.4
					c0,0.4,0.2,0.7,0.5,0.9l11.3,5l0.4-1.8C141.2,77.1,143.7,75.4,146.2,75.9L146.2,75.9z"/>
			</g>
		</g>
		<ellipse class="st1" cx="98.5" cy="47.1" rx="7.5" ry="6.3"/>
		<circle class="st1" cx="71.5" cy="86.1" r="8.2"/>
		<circle class="st2" cx="103.4" cy="81.8" r="5.9"/>
		<circle class="st2" cx="81.7" cy="110.4" r="5.7"/>
		<g>
			<path class="st3" d="M43.2,70.7c0-20.4,9.7-38.5,24.8-50c-1.8,0.2-3.5,0.6-5.2,1c-0.4,0.1-0.7-0.1-0.9-0.4l-7-10.1l0.2-0.1
				c2.4-0.9,3.7-3.5,2.9-5.9c-0.8-2.6-3.7-3.9-6.2-2.9L43,5.7c-2.4,0.9-3.7,3.5-2.9,5.9c0.8,2.6,3.7,3.9,6.2,2.9l1.7-0.7l1.8,12.2
				c0.1,0.4-0.1,0.7-0.4,0.9c-4.9,2.8-9.3,6.3-13.1,10.4c-0.3,0.3-0.7,0.4-1,0.2l-8-3.4c1.2-2,0.8-4.6-1.1-6
				c-0.8-0.6-1.8-0.9-2.7-0.9c-1.4,0-2.7,0.6-3.6,1.8l-3.8,5c-1.5,1.9-1.2,4.7,0.6,6.3c2,1.6,4.9,1.3,6.5-0.7l0.5-0.7l5.7,6.7
				c0.2,0.3,0.3,0.7,0.1,1c-3.4,5.8-5.7,12.4-6.6,19.3c0,0.4-0.3,0.7-0.7,0.8l-12,2.8c0-2.8-2.2-5.1-5-5.1c-2.9-0.1-5.2,2.3-5.2,5.2
				L0,78.4c0,2.8,2.3,5.1,5.1,5.1c1.4,0,2.7-0.6,3.6-1.5c0.9-0.9,1.5-2.2,1.5-3.6l0-1.4l12,2.8c0.4,0.1,0.6,0.4,0.7,0.8
				c0.9,6.6,3,12.8,6.1,18.3c0.2,0.3,0.1,0.7-0.1,1l-7.5,8.5c-1.7-2.2-4.9-2.7-7.1-0.9c-2.1,1.7-2.5,4.7-0.9,6.9l2.7,3.9
				c1.6,2.3,4.7,3,7,1.5c2.2-1.5,2.9-4.3,1.7-6.6l10.7-4.4c0.3-0.1,0.7-0.1,1,0.2c4.2,4.6,9.2,8.4,14.7,11.2
				c0.3,0.2,0.5,0.5,0.5,0.9l-1.5,13.1l-0.2-0.1c-3-1.1-6.5,0.4-7.5,3.5c-1,2.9,0.5,6.2,3.5,7.2l8.8,3.2c3.1,1.1,5.7-0.7,5.7-4
				c0.2-0.6,0.3-1.3,0.3-2c0-2.3-1.4-4.5-3.8-5.4l-0.3-0.1l7.1-11.2c0.2-0.3,0.6-0.5,0.9-0.4c3.4,0.7,7,1.1,10.6,1.1
				c0.4,0,0.9,0,1.3,0C56.8,115.7,43.2,94.8,43.2,70.7L43.2,70.7z"/>
		</g>
		<circle class="st1" cx="46.1" cy="96.8" r="5.9"/>
		<g>
			<path class="st2" d="M90,70.7h-2c-1.3,0-2.3-1-2.3-2.3s1-2.3,2.3-2.3h2c1.3,0,2.3,1,2.3,2.3S91.3,70.7,90,70.7z"/>
		</g>
		<g>
			<path class="st2" d="M63.3,110.3h-2.1c-1.3,0-2.3-1-2.3-2.3s1-2.3,2.3-2.3h2.1c1.3,0,2.3,1,2.3,2.3S64.6,110.3,63.3,110.3z"/>
		</g>
		<g>
			<path class="st1" d="M42.2,77.3h-2c-1.3,0-2.3-1-2.3-2.3s1-2.3,2.3-2.3h2c1.3,0,2.3,1,2.3,2.3S43.4,77.3,42.2,77.3z"/>
		</g>
		<g>
			<path class="st2" d="M82.4,37.6h-2.8c-1.3,0-2.3-1-2.3-2.3c0-1.3,1-2.3,2.3-2.3h2.8c1.3,0,2.3,1,2.3,2.3
				C84.7,36.6,83.7,37.6,82.4,37.6z"/>
		</g>
		<g>
			<path class="st1" d="M100.6,102.9h-3c-1.3,0-2.3-1-2.3-2.3c0-1.3,1-2.3,2.3-2.3h3c1.3,0,2.3,1,2.3,2.3
				C102.8,101.9,101.8,102.9,100.6,102.9L100.6,102.9z"/>
		</g>
	</g>
	<ellipse transform="matrix(0.7852 -0.6192 0.6192 0.7852 -20.5845 47.3072)" class="st1" cx="57.9" cy="53.3" rx="15.6" ry="13"/>
</g>
</svg>
